{"title":"Three Worlds 2018 1080p WEB-DL DD 2.0 x264 [MW]","magnet":"magnet:?xt=urn:btih:57e4a0495b9edc253ac6f24f604befb73bc51aa8&dn=Three+Worlds+2018+1080p+WEB-DL+DD+2.0+x264+%5BMW%5D&tr=udp%3A%2F%2Ftracker.leechers-paradise.org%3A6969&tr=udp%3A%2F%2Fzer0day.ch%3A1337&tr=udp%3A%2F%2Fopen.demonii.com%3A1337&tr=udp%3A%2F%2Ftracker.coppersurfer.tk%3A6969&tr=udp%3A%2F%2Fexodus.desync.com%3A6969","uploader":"MFreaky","categoryP":"video","categoryS":"hd___movies","size":"1570276022","seeders":"18","leechers":"18","description":" <a href=\"https://pichub.site/image/EgBxI\" rel=\"nofollow\" target=\"_NEW\">https://pichub.site/image/EgBxI</a> <a href=\"\nhttps://pichub.site/image/EgKHX\" rel=\"nofollow\" target=\"_NEW\">\nhttps://pichub.site/image/EgKHX</a> <a href=\"\nhttps://pichub.site/image/EgmD8\" rel=\"nofollow\" target=\"_NEW\">\nhttps://pichub.site/image/EgmD8</a> <a href=\"\nhttps://pichub.site/image/EgumJ\" rel=\"nofollow\" target=\"_NEW\">\nhttps://pichub.site/image/EgumJ</a> <a href=\"\nhttps://pichub.site/image/EgUYh\" rel=\"nofollow\" target=\"_NEW\">\nhttps://pichub.site/image/EgUYh</a>\r\n\r\nIMDB <a href=\"\nhttps://www.imdb.com/title/tt4347994/\" rel=\"nofollow\" target=\"_NEW\">\nhttps://www.imdb.com/title/tt4347994/</a>\r\n\r\nVideo\r\nFormat                                   : AVC\r\nFormat/Info                              : Advanced Video Codec\r\nFormat profile                           : High@L4.1\r\nFormat settings                          : CABAC / 4 Ref Frames\r\nFormat settings, CABAC                   : Yes\r\nFormat settings, RefFrames               : 4 frames\r\nCodec ID                                 : V_MPEG4/ISO/AVC\r\nDuration                                 : 1 h 28 min\r\nBit rate                                 : 2 200 kb/s\r\nWidth                                    : 1 920 pixels\r\nHeight                                   : 1 040 pixels\r\nDisplay aspect ratio                     : 1.85:1\r\nFrame rate mode                          : Constant\r\nFrame rate                               : 23.976 (24000/1001) FPS\r\nColor space                              : YUV\r\nChroma subsampling                       : 4:2:0\r\nBit depth                                : 8 bits\r\nScan type                                : Progressive\r\nBits/(Pixel*Frame)                       : 0.046\r\nStream size                              : 1.32 GiB (90%)\r\nWriting library                          : x264 core 155 r2901 7d0ff22\r\n\r\nAudio\r\nFormat                                   : E-AC-3\r\nFormat/Info                              : Enhanced Audio Coding 3\r\nCodec ID                                 : A_EAC3\r\nDuration                                 : 1 h 28 min\r\nBit rate mode                            : Constant\r\nBit rate                                 : 224 kb/s\r\nChannel(s)                               : 2 channels\r\nChannel positions                        : Front: L R\r\nSampling rate                            : 48.0 kHz\r\nFrame rate                               : 187.500 FPS (256 SPF)\r\nCompression mode                         : Lossy\r\nStream size                              : 142 MiB (9%)\r\nLanguage                                 : English","last_updated":"2018-09-22T12:13:51.054Z","parsed":{"xt":"urn:btih:57e4a0495b9edc253ac6f24f604befb73bc51aa8","dn":"Three Worlds 2018 1080p WEB-DL DD 2.0 x264 [MW]","tr":["udp://exodus.desync.com:6969","udp://open.demonii.com:1337","udp://tracker.coppersurfer.tk:6969","udp://tracker.leechers-paradise.org:6969","udp://zer0day.ch:1337"],"infoHash":"57e4a0495b9edc253ac6f24f604befb73bc51aa8","infoHashBuffer":{"type":"Buffer","data":[87,228,160,73,91,158,220,37,58,198,242,79,96,75,239,183,59,197,26,168]},"name":"Three Worlds 2018 1080p WEB-DL DD 2.0 x264 [MW]","announce":["udp://exodus.desync.com:6969","udp://open.demonii.com:1337","udp://tracker.coppersurfer.tk:6969","udp://tracker.leechers-paradise.org:6969","udp://zer0day.ch:1337"],"urlList":[]}}